<?xml version="1.0" encoding="UTF-8"?>
<svg xmlns="http://www.w3.org/2000/svg" viewBox="0 0 190 116" width="190" height="116">
  <defs>
    <filter id="cyan-glow" x="-30%" y="-30%" width="160%" height="160%">
      <feGaussianBlur in="SourceGraphic" stdDeviation="3.5" result="blur"/>
      <feColorMatrix in="blur" type="matrix"
        values="0 0 0 0 0
                0 0 0 0 0.784
                0 0 0 0 0.878
                0 0 0 0.9  0"
        result="cyanBlur"/>
      <feMerge>
        <feMergeNode in="cyanBlur"/>
        <feMergeNode in="SourceGraphic"/>
      </feMerge>
    </filter>
    <filter id="copper-glow" x="-30%" y="-30%" width="160%" height="160%">
      <feGaussianBlur in="SourceGraphic" stdDeviation="2.5" result="blur"/>
      <feColorMatrix in="blur" type="matrix"
        values="0 0 0 0 0.769
                0 0 0 0 0.482
                0 0 0 0 0.247
                0 0 0 0.7  0"
        result="copperBlur"/>
      <feMerge>
        <feMergeNode in="copperBlur"/>
        <feMergeNode in="SourceGraphic"/>
      </feMerge>
    </filter>
  </defs>

  <!-- WING BARS — Luminous Cyan with glow -->
  <g filter="url(#cyan-glow)">
    <rect x="34"  y="14" width="140" height="14" rx="1.5" fill="#00C8E0"/>
    <rect x="24"  y="32" width="133" height="14" rx="1.5" fill="#00C8E0"/>
    <rect x="15"  y="50" width="123" height="14" rx="1.5" fill="#00C8E0"/>
    <rect x="8"   y="68" width="109" height="14" rx="1.5" fill="#00C8E0"/>
    <rect x="4"   y="86" width="93"  height="14" rx="1.5" fill="#00C8E0"/>
  </g>

  <!-- SCALPEL — Burnished Copper with glow -->
  <g filter="url(#copper-glow)">
    <polygon
      points="15.6,103.2 173.6,2.2 178.4,9.8 20.4,110.8"
      fill="#C47B3F"/>
    <polygon
      points="173.6,2.2 182,0.5 184,10.5 178.4,9.8"
      fill="#C47B3F"/>
    <polygon
      points="177,1.4 182,0.5 184,10.5 181,10.2"
      fill="#A5662F"/>
  </g>

  <!-- Grip lines -->
  <line x1="55.1" y1="78.0" x2="59.9" y2="85.6"
        stroke="#7A4B1C" stroke-width="2.2" stroke-linecap="round"/>
  <line x1="70.9" y1="67.9" x2="75.7" y2="75.5"
        stroke="#7A4B1C" stroke-width="2.2" stroke-linecap="round"/>
  <line x1="86.7" y1="57.7" x2="91.5" y2="65.3"
        stroke="#7A4B1C" stroke-width="2.2" stroke-linecap="round"/>
</svg>
